<?xml version="1.0" standalone="no"?>
<!DOCTYPE svg PUBLIC "-//W3C//DTD SVG 20010904//EN"
 "http://www.w3.org/TR/2001/REC-SVG-20010904/DTD/svg10.dtd">
<svg version="1.0" xmlns="http://www.w3.org/2000/svg"
 width="512.000000pt" height="512.000000pt" viewBox="0 0 512.000000 512.000000"
 preserveAspectRatio="xMidYMid meet">

<g transform="translate(0.000000,512.000000) scale(0.100000,-0.100000)"
fill="#000000" stroke="none">
<path d="M2340 5109 c-599 -51 -1150 -309 -1581 -739 -207 -207 -340 -385
-465 -624 -416 -799 -385 -1756 83 -2520 206 -335 527 -654 863 -856 446 -268
978 -399 1478 -362 371 27 668 105 963 252 429 214 758 503 1015 890 207 310
339 657 401 1055 21 138 24 514 4 655 -66 483 -221 868 -499 1240 -99 132
-337 376 -462 472 -525 404 -1156 592 -1800 537z m16 -657 l49 -129 100 -38
c55 -22 116 -45 135 -53 l35 -15 -135 -52 -135 -53 -50 -131 c-27 -72 -52
-131 -55 -131 -3 0 -27 59 -55 132 l-50 131 -135 53 c-131 51 -134 53 -105 63
17 7 77 31 135 54 l105 42 50 128 c27 70 52 127 55 127 4 0 29 -58 56 -128z
m-1160 -475 c48 -24 110 -83 133 -126 6 -11 17 -43 24 -71 l13 -52 90 -40
c174 -79 1221 -557 1319 -602 l100 -47 55 28 c115 57 268 27 355 -69 53 -58
78 -120 79 -198 l1 -65 207 -210 206 -210 79 -1 c61 0 88 -5 123 -23 138 -71
207 -221 166 -363 -18 -62 -77 -145 -119 -167 l-27 -14 0 -181 0 -181 36 -24
c74 -51 119 -145 118 -246 -1 -174 -128 -299 -304 -300 -128 0 -222 61 -278
183 -21 47 -24 65 -20 136 5 97 30 150 103 214 l45 40 0 177 0 177 -45 41
c-25 22 -58 63 -73 91 -24 45 -27 62 -27 146 l0 95 -190 193 -189 193 -46 -8
c-176 -30 -334 70 -368 234 l-8 37 -674 308 c-371 169 -712 324 -757 344 l-82
37 -48 -24 c-34 -17 -70 -25 -126 -27 -71 -4 -84 -1 -142 27 -193 95 -234 342
-82 494 62 63 131 88 227 84 56 -3 88 -10 126 -30z m2785 -502 l44 -115 122
-48 c67 -25 119 -50 115 -54 -4 -4 -58 -27 -121 -51 l-114 -44 -39 -99 c-66
-169 -53 -166 -109 -24 l-49 125 -120 45 c-66 25 -120 47 -120 50 0 3 51 25
113 49 61 24 117 49 123 55 7 6 31 61 54 123 24 62 46 110 50 108 4 -2 27 -56
51 -120z m-2741 -947 c24 -62 47 -118 51 -124 5 -5 60 -30 124 -54 63 -25 115
-47 115 -50 0 -3 -52 -25 -115 -50 -64 -24 -119 -49 -124 -54 -4 -6 -27 -62
-51 -124 -24 -62 -46 -109 -51 -105 -4 4 -27 60 -51 123 l-45 114 -121 46
c-67 25 -122 47 -122 50 0 3 55 26 123 52 l122 47 29 78 c40 104 64 163 69
163 2 0 24 -51 47 -112z"/>
</g>
</svg>
